<?xml version="1.0" encoding="UTF-8" standalone="no"?>
<!-- Created with Inkscape (http://www.inkscape.org/) -->

<svg
   version="1.1"
   id="svg1"
   width="522.797"
   height="522.797"
   viewBox="0 0 522.79698 522.797"
   inkscape:version="1.4 (e7c3feb100, 2024-10-09)"
   sodipodi:docname="cocobuddy.svg"
   inkscape:export-filename="cocobuddy.svg"
   inkscape:export-xdpi="96"
   inkscape:export-ydpi="96"
   xmlns:inkscape="http://www.inkscape.org/namespaces/inkscape"
   xmlns:sodipodi="http://sodipodi.sourceforge.net/DTD/sodipodi-0.dtd"
   xmlns="http://www.w3.org/2000/svg"
   xmlns:svg="http://www.w3.org/2000/svg">
  <defs
     id="defs1" />
  <sodipodi:namedview
     id="namedview1"
     pagecolor="#505050"
     bordercolor="#ffffff"
     borderopacity="1"
     inkscape:showpageshadow="0"
     inkscape:pageopacity="0"
     inkscape:pagecheckerboard="1"
     inkscape:deskcolor="#d1d1d1"
     inkscape:zoom="1"
     inkscape:cx="183"
     inkscape:cy="320.5"
     inkscape:window-width="1920"
     inkscape:window-height="1020"
     inkscape:window-x="1920"
     inkscape:window-y="60"
     inkscape:window-maximized="1"
     inkscape:current-layer="g2"
     showgrid="false">
    <inkscape:grid
       id="grid1"
       units="px"
       originx="0"
       originy="0"
       spacingx="0.99999999"
       spacingy="1"
       empcolor="#3f3fff"
       empopacity="0.25098039"
       color="#3f3fff"
       opacity="0.1254902"
       empspacing="5"
       enabled="true"
       visible="false" />
    <inkscape:page
       x="0"
       y="0"
       width="522.797"
       height="522.797"
       id="page1"
       margin="0"
       bleed="0" />
  </sodipodi:namedview>
  <g
     inkscape:groupmode="layer"
     inkscape:label="Image"
     id="g1"
     transform="translate(-9.7740869,1.5909675)">
    <g
       id="g2"
       transform="translate(-39.261939,-14.89246)">
      <path
         style="fill:#2558a4"
         d="m 284.73192,493.94715 c -28.77623,-2.82799 -58.35633,-11.58496 -66.73275,-21.10108 -4.14583,-4.70992 -5.15079,-13.61257 -4.58605,-21.52554 0.6381,-8.94069 5.1211,-25.83736 8.98791,-33.56762 1.80482,-3.60809 3.43108,-7.09189 3.43108,-7.48584 0,-0.39395 2.37676,-1.83046 4.77152,-2.80458 1.8311,-0.74484 9.86081,-4.99281 6.46018,-8.07033 -1.91306,-1.7313 -0.62136,-2.11354 -6.2473,0.89281 -11.19166,5.98051 -26.56381,6.70036 -35.03522,1.09424 -7.60984,-5.03595 -10.46011,-22.27193 -6.92975,-36.99644 2.80426,-11.69609 5.01491,-24.85913 21.9025,-44.02824 10.24839,-11.63295 19.79698,-19.18669 28.80769,-20.87007 8.10899,-1.51493 16.00383,4.80922 18.38548,14.35918 1.1866,4.75802 2.47968,8.18919 -1.30078,13.7104 -3.59105,5.24459 -6.25534,9.95838 -3.16374,9.74264 5.04739,-0.35222 4.29426,8.793 4.29426,13.33734 0,4.88512 -1.48367,10.63943 -5.32287,13.68013 -2.33432,1.84882 -1.91558,0.59749 -1.91558,2.46025 0,3.00904 -1.24048,0.19199 1.91822,0.19199 1.75245,0 1.36699,1.15572 2.89071,-0.22306 1.21564,-1.1 3.80035,-2.08122 3.1066,-1.24973 -0.69375,0.8315 -1.72675,3.94855 -1.72675,4.23788 0,0.28932 1.30094,3.13314 2.89097,6.31959 18.66627,37.40747 41.10596,35.10083 71.43577,3.22939 11.90362,-12.50866 27.56063,-21.38453 39.62079,-44.06392 5.66848,-10.65971 6.82377,-13.36048 6.44764,-15.07299 -0.32402,-1.47527 -0.0762,-2.50416 0.84603,-3.51286 0.71734,-0.78459 1.03769,-1.02485 0.71188,-0.53391 -0.32581,0.49094 3.10051,-5.89651 3.22632,-4.39506 0.18756,2.23834 4.55298,-5.80547 6.10685,-5.39335 3.36243,0.8918 -8.53194,9.3767 7.88993,-2.77246 4.4,-3.2552 25.05179,-7.22257 29.65179,-10.36949 19.00461,-13.00128 27.14347,-20.31015 45.11608,-37.71307 17.001,-16.46209 23.33529,-19.36065 28.49581,-18.39253 3.04537,0.57131 7.91873,7.28916 9.78891,10.95502 2.11491,4.14557 4.00144,12.1537 3.08602,17.2644 -1.97339,11.01736 -11.77583,25.77309 -21.33588,31.36236 -5.03472,2.94354 -7.21759,3.7819 -7.21695,5.81911 2e-4,0.64606 1.33019,2.69134 2.07797,4.69134 3.24631,8.68249 0.5561,18.73386 -4.59191,29.36961 -3.86088,7.97658 -9.11046,15.00929 -15.52974,18.16853 -4.49931,2.21432 -5.69567,2.61584 -12.62858,2.61584 -10.10175,0 -8.47743,-1.99294 -8.51364,9.56603 -0.0311,9.93163 -1.96546,13.64154 -6.62178,18.1049 -5.08649,4.87571 -11.834,6.53852 -22.89676,3.99139 -6.47776,-1.49147 -5.19263,-1.20386 -8.96157,-0.0158 -2.85438,0.89977 -2.59859,0.0365 -3.08941,1.3275 -0.7116,1.87165 0.10723,2.79429 1.50755,3.65971 0.43542,0.2691 0.61468,4.19754 2.15346,7.26729 6.30043,12.56892 8.65821,24.73441 7.95716,35.09576 -0.48766,7.20746 -2.50435,15.86641 -5.26512,21.02407 -2.4832,4.63911 -11.39169,13.70807 -16.68772,16.83074 -6.07318,3.58091 -18.70356,9.13437 -29.20355,12.0075 -22.3743,6.12232 -60.63746,9.53292 -78.46368,7.78104 z M 161.1652,346.1152 c -17.45312,-1.28601 -30.01428,-8.19773 -40.49484,-18.73414 -4.93988,-4.96621 -9.76959,-9.61151 -12.16586,-14.46748 -8.581279,-17.38972 -3.9577,-38.85516 8.93955,-57.09192 1.69731,-2.4 3.39244,-4.15611 3.66354,-5.0401 0.30736,-1.00224 0.67476,-3.64283 -0.70606,-7.85594 -4.06375,-12.39913 -5.71513,-20.18534 -6.08649,-35.28926 -0.28587,-11.62712 -0.0184,-15.9366 1.23775,-23.58602 2.50872,-15.27693 6.69565,-28.64571 13.70511,-42.68298 13.58079,-27.19717 35.03165,-49.84043 63.65017,-67.188326 7.29017,-4.419135 10.89695,-4.228038 12.72358,-3.505624 6.24245,2.468828 8.8393,2.918384 3.87441,-1.628903 -2.81634,-2.579456 -7.14586,-6.954232 -9.05071,-9.218019 -3.43647,-4.08401 0.65359,-12.183506 5.68928,-16.912403 3.10222,-2.913231 8.37551,-4.151058 11.39118,-1.921472 2.46143,1.81981 4.20277,1.780392 5.37088,-0.08564 0.54439,-0.869657 0.45249,-5.665429 -0.10942,-8.390943 -0.70751,-7.545247 13.37279,-8.289908 17.70323,-5.94412 6.7641,3.664088 12.22185,10.561895 12.86462,17.192494 0.27925,2.880739 4.72509,5.851847 4.72509,5.851847 23.00595,-2.906092 45.54819,-2.581675 57.63986,-0.950222 33.8209,4.563239 64.47537,20.772836 87.74286,42.661213 18.81258,17.697528 32.7456,42.494618 37.29131,66.904918 2.54632,13.67367 4.16988,15.33976 4.16988,16.93968 0,2.15019 1.00146,2.13793 4.4865,2.15295 1.611,0.007 5.27411,2.65067 8.06714,3.24229 14.13354,2.99381 24.4988,14.23152 27.14596,27.88335 1.15636,5.9635 1.14612,16.45794 -0.78543,22.56223 -1.45382,4.59453 -2.63764,5.30527 -15.4096,18.26525 -14.25141,14.4612 -20.3377,20.42023 -39.73927,34.12804 -6.8,4.80441 -15.70292,12.12805 -18.70292,14.36517 -3,2.23711 -6.29839,4.46697 -6.58289,4.37845 -0.28449,-0.0885 -5.89465,0.0629 -12.10137,2.23772 -6.20673,2.17487 -15.44541,5.71508 -21.55419,7.5015 -12.82145,3.74942 -87.48576,23.54971 -96.68108,25.29488 -3.4,0.64528 -8.71735,1.87468 -9.77607,2.20145 -1.59306,0.4917 -3.15022,-2.30387 -3.75142,-3.62336 -0.59133,-1.29784 -0.61135,-2.99071 1.37364,-6.13888 3.25707,-5.16571 2.69432,-8.92074 1.64638,-14.57413 -2.34704,-12.66175 -8.54342,-21.63687 -19.29679,-21.61057 -5.82694,0.0143 -7.34907,1.1044 -13.46151,4.04667 -11.79038,5.6754 -25.79169,19.76016 -35.63647,38.8752 -2.26511,4.39803 -5.86812,9.40511 -6.5588,9.67897 -1.72986,0.68588 -13.36932,1.04006 -18.41221,0.66848 z"
         id="path5"
         sodipodi:nodetypes="sssssssssssssssssssssssssssssssssssssssssssssssssssssssssssssssssssssscsscssssssssssssssssssssssssss" />
      <path
         style="fill:#214f92"
         d="m 162.18182,318.01025 c -9.33087,-0.48784 -17.44478,-3.85565 -23.8234,-9.88828 -6.94159,-6.56508 -9.72238,-12.86978 -9.74726,-22.09934 -0.0272,-10.0865 3.14944,-17.16912 11.34543,-25.29581 7.53543,-7.47171 15.92175,-11.44902 26.66555,-12.64642 14.18661,-1.58112 26.99179,3.29314 34.58892,13.16619 4.60829,5.98882 6.30463,11.07687 6.25215,18.75295 -0.0704,10.29212 -3.73784,18.21249 -11.9565,25.82152 -9.16381,8.48407 -21.04833,12.83105 -33.32489,12.18919 z m 131.50001,-37.77979 c 0.525,-0.21009 1.15227,-0.18425 1.39394,0.0574 0.24167,0.24167 -0.18788,0.41356 -0.95455,0.38198 -0.84723,-0.0349 -1.01956,-0.20723 -0.43939,-0.43939 z m 103.04546,-26.42673 c -11.11756,-2.22555 -19.97647,-8.99019 -24.62676,-18.80491 -2.128,-4.49128 -2.28233,-5.35797 -2.28233,-12.81701 0,-7.75921 0.083,-8.17377 2.75657,-13.77353 4.89834,-10.25942 15.30462,-18.9217 27.18706,-22.63075 5.15137,-1.60798 15.31074,-2.1463 20.73382,-1.09863 10.47106,2.02287 19.81763,8.64922 24.44457,17.33025 10.48557,19.67294 -3.53605,44.67747 -28.65619,51.10212 -5.79444,1.48197 -14.13719,1.77736 -19.55674,0.69246 z m -99.4091,-7.75509 c 0.525,-0.21009 1.15228,-0.18425 1.39394,0.0574 0.24167,0.24166 -0.18788,0.41355 -0.95454,0.38197 -0.84723,-0.0349 -1.01957,-0.20723 -0.4394,-0.43939 z"
         id="path4"
         sodipodi:nodetypes="ssssssssssssssssssssssssssss" />
      <path
         style="fill:#efa512"
         d="m 238.55454,525.72171 c -26.59148,-5.57928 -39.04747,-22.86792 -25.86752,-35.90354 6.2782,-6.20944 8.66101,-8.82904 18.25344,-4.2107 4.56488,2.19779 11.96339,5.97031 15.70983,7.21332 10.02213,3.32516 28.34019,5.68185 43.3358,7.01874 4.72714,0.42144 3.83195,3.62094 3.82805,5.49107 -0.008,3.80036 -1.53061,7.32846 -4.66969,10.81987 -4.13309,4.59699 -8.93479,7.14751 -17.58929,9.3429 -9.12991,2.31599 -22.60624,2.40924 -33.00062,0.22834 z m 117.26171,0.0171 c -8.7615,-1.45993 -16.86633,-5.69309 -19.71028,-10.29468 -2.34713,-3.79775 -3.36466,-8.58862 -2.59387,-12.2129 l 0.4304,-4.58514 10.05751,-1.57274 c 27.72726,-4.33585 46.9246,-15.04273 59.97597,-22.30846 l 2.80367,-3.13127 5.19063,2.73779 c 8.29267,4.37396 12.04005,9.16097 12.01376,16.69048 -0.0266,7.61511 -3.9168,14.08702 -12.38385,20.60227 -14.00812,10.779 -38.49098,16.95619 -55.78394,14.07465 z M 292.00001,279.51333 c -2.53816,-0.68619 -17.41607,-6.90831 -18.36544,-7.68066 -0.50099,-0.40758 -1.89368,-0.54449 -3.09486,-0.30425 -4.07526,0.81505 -7.27184,-1.89413 -6.20413,-5.25817 0.41384,-1.3039 9.48745,-9.46576 17.69833,-15.91994 5.7694,-4.53505 7.1813,-4.73275 21.56766,-3.01994 6.81914,0.81187 13.31095,1.83046 14.42624,2.26353 4.29154,1.66643 4.37881,5.99994 0.16651,8.26841 -1.41206,0.76045 -3.6525,3.02525 -4.97875,5.03289 -9.98436,15.11405 -11.32219,16.49508 -16.27247,16.79793 -1.9187,0.11739 -4.14309,0.0365 -4.94309,-0.1798 z"
         id="path7"
         sodipodi:nodetypes="sssssssssssscsscsssssssssssssss" />
      <path
         style="fill:#df990b;fill-opacity:1"
         d="m 291.99347,278.70106 c -2.53816,-0.68619 -19.52168,-7.27948 -18.36544,-7.68066 29.27427,-10.15735 15.63691,-5.94097 44.05205,-13.97036 1.54338,-0.43612 -3.1448,3.02525 -4.47105,5.03289 -9.98436,15.11405 -11.32219,16.49508 -16.27247,16.79793 -1.9187,0.11739 -4.14309,0.0365 -4.94309,-0.1798 z"
         id="path7-3"
         sodipodi:nodetypes="ssssss" />
      <path
         style="fill:#f6863f;fill-opacity:1;stroke-width:0.416546"
         d="m 292.69018,270.2109 c -1.1069,-0.27301 -8.52879,-2.87655 -8.03265,-3.05979 12.88624,-4.75926 6.91752,-3.09275 19.30943,-6.28738 0.67307,-0.17353 -1.44625,1.9366 -2.02463,2.73537 -4.3542,6.01338 -4.93763,6.56285 -7.09646,6.68334 -0.83675,0.0467 -1.80681,0.0146 -2.15569,-0.0715 z"
         id="path1"
         sodipodi:nodetypes="sssssss" />
      <path
         style="fill:#6b93cf"
         d="m 286.8069,404.80976 c -10.31936,-3.8356 -19.70698,-13.76531 -27.18865,-28.75869 -1.59003,-3.18645 -2.89097,-6.00795 -2.89097,-6.27 0,-0.26205 2.20968,-15.20265 3.97962,-17.17125 1.76995,-1.96861 -7.39307,-11.30837 -6.81426,-12.99853 0,0 7.96621,-1.41631 7.76809,-2.00794 -0.16248,-0.48525 1.54118,-0.96861 2.46959,-1.14726 0.92842,-0.17865 4.46985,-0.86357 7.86985,-1.52206 9.5039,-1.84063 84.04283,-20.46138 96.56142,-24.12223 6.10878,-1.78642 16.21924,-5.03942 22.46768,-7.22891 6.24844,-2.18949 12.88736,-3.85049 13.04673,-3.69112 0.41073,0.41073 -14.26959,10.44422 -20.15005,13.70446 -5.38111,2.98339 -4.21506,4.81294 -3.51686,7.59481 0.35766,1.42503 -4.32801,3.8592 -9.71931,13.99764 -12.07566,22.70853 -21.86346,37.08256 -33.77199,49.59639 -17.57747,18.47092 -35.26976,25.54091 -50.11073,20.02469 z"
         id="path8"
         sodipodi:nodetypes="sssssssssssssssss" />
      <path
         style="fill:#26303f"
         d="m 265.24462,365.09391 c -0.23516,-0.89923 -0.0236,-1.69267 0.50545,-1.89568 0.65198,-0.25019 0.91771,-3.03277 0.42979,-7.80797 -0.31895,-3.12149 -1.14708,-6.65316 -1.6124,-9.62462 -0.49028,-3.13113 -4.09469,-4.92138 2.42239,-4.71018 3.56992,-0.43566 3.32163,-0.18126 3.42393,0.87781 0.11848,1.22657 -1.91857,2.40821 -1.89381,4.16206 0.0293,2.07276 0.75112,5.45986 1.02392,7.40902 0.67564,4.82746 1.56098,7.81052 2.73459,8.77407 1.36613,1.12161 1.41671,1.38432 0.44877,2.3306 -0.6,0.58658 -2.43806,1.28361 -4.08457,1.54896 -2.64921,0.42695 -3.0402,0.30451 -3.39809,-1.06407 z m 50.58361,-4.18483 c -0.26937,-0.7 0.54119,-7.32612 1.80123,-14.72473 1.94848,-11.44086 2.53267,-13.64769 3.90748,-14.76095 1.32294,-1.07124 1.78597,-1.13774 2.54974,-0.36618 0.994,1.00414 11.91333,24.12557 11.91333,25.2262 0,0.85524 -2.12524,1.65556 -2.98511,1.12413 -0.36962,-0.22843 -1.32856,-1.70222 -2.13097,-3.27508 -1.64506,-3.22458 -1.4515,-3.16478 -6.48337,-2.00328 -3.90903,0.90231 -3.8225,0.7832 -4.74206,6.52786 -0.23393,1.46138 -0.9341,2.85228 -1.55593,3.09091 -1.6128,0.61888 -1.73,0.57565 -2.27434,-0.83888 z m 9.17178,-13 c 1.25,-0.25 2.27273,-0.70136 2.27273,-1.00302 0,-0.30166 -0.8827,-2.46984 -1.96156,-4.81818 l -1.96156,-4.26971 -0.50167,2.54546 c -1.72661,8.76067 -1.84519,8.3449 2.15206,7.54545 z m 15.24831,5.18142 c -7.30082,-4.03001 -9.30776,-23.54017 -2.7693,-26.92134 2.64798,-1.36932 3.95244,-1.3611 5.34723,0.0337 1.56657,1.56656 0.66381,3.25168 -1.74199,3.25168 -1.62628,0 -2.19255,0.45809 -2.83128,2.29034 -1.24283,3.56518 -0.90676,8.60969 0.86029,12.91328 2.08733,5.08364 3.35534,5.89811 5.97472,3.83771 2.17032,-1.70717 3.27566,-1.51909 3.27566,0.55738 0,3.53256 -4.74932,5.89527 -8.11533,4.03725 z m 14.05427,-7.28231 c -1.19496,-1.0055 -2.69279,-3.35471 -3.32852,-5.22047 -1.33794,-3.92664 -1.54116,-13.38981 -0.33772,-15.72645 4.80348,-9.32656 13.38401,-4.31578 14.293,8.34669 0.45257,6.3045 -0.19838,9.51662 -2.47747,12.22517 -2.32263,2.76029 -5.15943,2.89085 -8.14929,0.37506 z m 6.32295,-5.81813 c 1.16309,-3.40894 0.25744,-10.89781 -1.67447,-13.84627 -1.78021,-2.71694 -3.82725,-2.30714 -4.731,0.94711 -1.40437,5.05692 -0.70721,10.66983 1.80068,14.49736 1.61708,2.46797 3.43243,1.83791 4.60479,-1.5982 z M 228.36365,283.79917 c -1.4,-0.75686 -3.6091,-2.94011 -4.9091,-4.85166 -1.97669,-2.90657 -2.36345,-4.14667 -2.3625,-7.57516 0.001,-5.23533 1.65706,-8.53438 5.69788,-11.35382 2.7998,-1.95352 3.74132,-2.20035 8.39305,-2.20035 4.82133,0 5.47926,0.1899 8.24375,2.37941 5.50299,4.35845 7.57866,12.02934 4.75397,17.56888 -0.69938,1.37155 -2.52289,3.49368 -4.05225,4.71583 -2.41916,1.93322 -3.45915,2.2527 -8,2.45754 -4.06312,0.18329 -5.78324,-0.0694 -7.7648,-1.14067 z M 342.9091,254.28062 c -2.89163,-1.342 -5.8423,-4.56166 -7.23414,-7.89363 -5.56623,-13.32513 10.92346,-24.54853 21.90332,-14.90808 6.9384,6.09199 6.87073,15.96274 -0.14612,21.31475 -2.25711,1.72158 -3.55337,2.1155 -7.53371,2.28945 -3.0002,0.13111 -5.62775,-0.17057 -6.98935,-0.80249 z"
         id="path2"
         sodipodi:nodetypes="sssscssssssssssssssssssssscsssssssssssssssssssssssscssssssssssssss" />
      <path
         style="fill:#1e4887"
         d="m 277.81819,501.48528 c -38.05327,-5.58792 -60.94773,-15.64024 -67.88293,-29.80552 -3.25474,-6.64787 -4.33078,-12.3286 -3.86548,-20.40704 0.49678,-8.62522 3.70817,-22.30676 7.36403,-31.37313 1.41141,-3.50024 2.5662,-6.46411 2.5662,-6.58638 0,-0.12227 -2.23151,-0.22231 -4.95891,-0.22231 -12.4201,0 -23.28996,-6.37017 -27.7846,-16.28288 -4.67343,-10.30703 -4.78741,-25.87808 -0.30003,-40.98985 0.48364,-1.62872 0.44775,-1.63636 -7.68739,-1.63636 -37.03676,0 -66.06871,-18.32756 -74.30682,-46.90909 -1.381356,-4.79252 -1.669935,-7.48488 -1.636995,-15.27273 0.05979,-14.13514 2.924205,-23.69635 10.909695,-36.41575 l 3.9245,-6.25102 -2.07936,-7.03025 c -4.02873,-13.62093 -4.81009,-19.94313 -4.77883,-38.66661 0.0263,-15.77297 0.18095,-17.8063 2.00508,-26.36796 2.81389,-13.2072 6.32606,-23.29287 12.47159,-35.81386 10.84654,-22.0989 25.79685,-40.74615 45.63316,-56.917413 6.69768,-5.46018 20.20786,-14.675821 25.29106,-17.251671 2.01382,-1.020478 3.66148,-1.955238 3.66148,-2.077244 0,-0.122006 -0.53303,-1.786212 -1.18453,-3.698235 -2.3735,-6.965852 -0.2889,-15.761562 5.06619,-21.376137 3.64722,-3.823942 6.81769,-5.425132 11.66225,-5.889812 3.70831,-0.355692 4.47568,-0.665472 4.65804,-1.880392 0.57117,-3.80535 1.11307,-4.971141 3.58004,-7.701781 1.45979,-1.615811 3.50125,-3.375884 4.53658,-3.911274 7.76225,-4.014016 19.73236,-0.471395 27.89572,8.255895 3.78898,4.050731 5.19185,6.531211 6.39408,11.305699 0.75334,2.991786 1.06688,3.384725 2.40177,3.010009 7.70915,-2.164022 42.37166,-2.195397 56.44441,-0.05109 53.89472,8.212091 97.15074,37.707603 118.90107,81.076526 6.45041,12.86175 11.44705,29.57752 13.07365,43.73659 l 0.4692,4.08421 3.84779,0.39713 c 2.11629,0.21842 6.21683,1.22099 9.11231,2.22794 19.5757,6.80776 30.86829,24.0062 29.63892,45.13964 -0.23483,4.03678 -0.63345,8.03319 -0.88582,8.88092 -0.42067,1.41301 -0.13008,1.5686 3.49033,1.86883 9.33557,0.77418 18.11594,8.35432 21.57663,18.62721 1.80087,5.34582 2.01952,15.23096 0.46597,21.06688 -3.26834,12.27755 -13.28529,25.95881 -23.30568,31.83115 l -3.11228,1.82391 1.11268,3.07489 c 0.72661,2.00797 1.11911,5.72455 1.13119,10.71126 0.0161,6.64724 -0.26482,8.44611 -2.1689,13.88791 -1.20308,3.43836 -3.44431,8.51108 -4.98053,11.27273 -3.32771,5.98223 -11.55544,14.4094 -16.7846,17.19149 -4.42202,2.35266 -11.12191,4.19332 -15.26343,4.19332 h -3.01228 l -0.42506,6.56094 c -0.31018,4.78767 -0.91834,7.63839 -2.25012,10.54738 -2.46823,5.39132 -8.30294,11.42465 -13.02973,13.47325 -4.91476,2.13007 -12.52112,2.62484 -18.57357,1.20815 -5.39423,-1.26262 -5.3064,-1.95647 -0.99324,7.84664 4.77051,10.8426 6.29103,18.01033 6.24831,29.45455 -0.0566,15.16861 -3.37544,25.3518 -11.49578,35.27272 -6.99136,8.54162 -13.6565,13.12088 -27.06103,18.59216 -13.0731,5.33602 -34.64686,10.75415 -47.54418,11.94046 -2.6,0.23915 -8.98182,0.89987 -14.18182,1.46826 -14.60528,1.59645 -35.80063,1.96117 -44,0.75714 z m 43.63734,-9.11715 c 29.30744,-3.3393 48.77516,-8.13234 65.08994,-16.02541 18.69071,-9.04255 27.41949,-22.69206 27.42674,-42.88818 0.004,-11.97014 -4.53545,-26.51236 -11.82074,-37.8655 -2.58926,-4.03501 -2.71657,-6.09433 -0.46785,-7.56775 3.05495,-2.00168 7.78945,-2.12136 15.71441,-0.39723 4.83838,1.05262 8.33461,1.44011 10.0649,1.11551 5.97301,-1.12054 10.62742,-4.92514 13.36084,-10.9214 1.03206,-2.26402 1.32966,-4.75096 1.34209,-11.21546 0.0211,-10.97539 0.0129,-10.96617 9.76506,-10.96693 6.65359,-5.2e-4 7.77586,-0.2059 11.97191,-2.19096 14.84289,-7.02182 25.30995,-30.93376 19.73355,-45.08119 -1.6686,-4.23329 -1.85111,-7.20984 -0.54545,-8.89606 0.5,-0.64573 2.70909,-2.21535 4.90909,-3.48803 10.57692,-6.11866 17.905,-15.66191 21.48637,-27.98137 1.639,-5.63799 1.13944,-13.93223 -1.12992,-18.76009 -1.88522,-4.01063 -6.99305,-8.79533 -10.69282,-10.01637 -5.17842,-1.70903 -6.31317,-0.94866 -23.84545,15.97834 -17.81808,17.20292 -27.31328,25.0156 -46.06686,37.90397 -4.93677,3.39278 -11.64586,8.1546 -14.90909,10.58181 -3.26323,2.42721 -9.36951,6.72448 -13.56951,9.54949 -16.17542,10.87994 -21.02283,11.71391 -19.76076,3.39973 0.0684,-0.45071 3.15167,-2.63744 6.85167,-4.85938 3.7,-2.22195 9.83637,-6.32404 13.63637,-9.11576 3.8,-2.79173 14.10909,-10.17407 22.90909,-16.40522 23.44733,-16.6027 30.53917,-22.46926 45.2271,-37.41311 l 13.2271,-13.45756 1.64158,-5.87383 c 2.23526,-7.99805 2.23241,-19.23568 -0.006,-25.45208 -2.24079,-6.22176 -4.51655,-9.76489 -8.98863,-13.99439 -6.27269,-5.93245 -13.78283,-9.12383 -23.79155,-10.11007 -2.80678,-0.27657 -5.3673,-0.8702 -5.69004,-1.31917 -1.11398,-1.54966 -3.04932,-8.83384 -3.8338,-14.42952 -2.12307,-15.14391 -9.25452,-34.14719 -17.92395,-47.7622 -28.55853,-44.850087 -87.00903,-71.386591 -146.04319,-66.303549 -21.10608,1.817306 -19.75981,1.849228 -22.13386,-0.524827 -1.72586,-1.725859 -2.10856,-2.726337 -2.10856,-5.51234 0,-8.427856 -9.27906,-17.074071 -19.085,-17.783368 -8.61218,-0.622949 -11.41926,3.474266 -9.00252,13.140048 1.03202,4.127557 -2.27509,5.305664 -7.3495,2.618146 -3.90849,-2.070022 -7.42227,-1.430094 -11.27885,2.054102 -5.05784,4.569453 -6.45748,13.96583 -2.61762,17.573191 2.16254,2.031601 6.46626,3.750381 9.39073,3.750381 2.89085,0 5.63973,1.756918 5.63973,3.604577 0,0.737154 -1.29501,3.063771 -2.87779,5.17026 -3.64551,4.851709 -4.17911,7.164967 -2.45339,10.635801 1.75893,3.537622 4.43875,5.394717 8.43458,5.845106 4.44534,0.501053 8.16842,-0.874855 10.44549,-3.86025 1.32764,-1.740622 2.48138,-2.486403 3.84652,-2.486403 6.13528,0 3.96863,7.094483 -3.50922,11.490583 -2.88493,1.696 -4.14235,1.963962 -9.21595,1.963962 -5.26798,0 -6.24517,-0.227696 -9.45455,-2.203011 -2.06538,-1.271207 -4.60777,-3.732116 -6.01081,-5.818182 -2.32503,-3.456896 -2.41787,-3.853974 -2.12047,-9.069716 0.17106,-3 0.55622,-6.007311 0.85591,-6.682914 0.4387,-0.988984 0.0365,-1.323742 -2.06384,-1.717769 -2.23391,-0.419083 -4.88906,-0.552087 -9.40206,2.100077 -48.62644,28.576425 -77.44132,75.606165 -79.53019,124.799575 -0.6201,14.60354 1.60946,30.87744 5.99796,43.78019 0.98179,2.88658 1.78508,5.98851 1.78508,6.89316 0,0.90466 -1.465,3.78467 -3.25555,6.40004 -8.06366,11.77819 -12.21072,23.90634 -12.20725,35.70036 0.007,24.40813 17.60749,44.25192 45.42683,51.21731 8.11275,2.03126 19.82866,3.07042 28.08547,2.49108 l 6.77678,-0.47549 3.88162,-7.73973 c 6.87649,-13.71133 18.08778,-28.64427 26.79471,-35.68937 8.8773,-7.18296 20.87961,-11.20852 28.40038,-9.52544 8.09125,1.81074 15.25467,8.73364 17.90034,17.29931 2.52824,8.18549 1.6879,15.06422 -2.64149,21.62248 -1.82617,2.76632 -3.25451,4.48446 -0.6644,5.36993 2.57224,0.87936 4.96438,15.55073 3.37727,18.70265 -1.11592,2.21617 -2.93503,7.88211 -5.3704,10.42569 -4.64611,4.85255 -9.27103,5.65994 -10.71195,1.87002 -0.87937,-2.31291 -0.0484,-3.97398 3.24437,-6.48551 2.74425,-2.09314 4.78145,-6.38486 4.78145,-10.07297 0,-3.34962 -1.74737,-8.82364 -3.82723,-11.98963 -2.87044,-4.36943 -2.87475,-5.55084 -0.0356,-9.76783 3.9859,-5.92034 4.59066,-7.44837 4.58304,-11.58002 -0.0124,-6.71935 -4.98326,-14.46953 -10.66649,-16.63029 -4.55168,-1.73054 -12.4042,0.20237 -19.50822,4.80199 -9.10723,5.89662 -20.56457,20.59 -28.33475,36.33764 -9.38414,19.01864 -10.8243,23.74289 -10.86357,35.63636 -0.0343,10.39055 1.60857,15.59211 6.43171,20.36364 3.96147,3.91908 8.38518,5.92242 14.60582,6.61447 4.15144,0.46185 16.55343,-2.87505 22.07057,-5.93835 5.26054,-2.92082 8.81749,-2.12942 8.81749,1.96184 0,2.59381 -3.88831,5.82586 -9.56095,7.94729 -2.4121,0.90206 -4.25723,2.03435 -4.25723,2.61249 0,0.56121 -1.17086,3.3454 -2.60191,6.18708 -4.85855,9.6478 -9.24176,26.65784 -9.34143,36.25154 -0.0424,4.08174 0.39651,6.71126 1.7439,10.44779 2.75282,7.63396 5.76307,10.53682 16.24105,15.6616 24.20616,11.83924 55.82309,16.24721 89.23209,12.44057 z M 223.27274,159.98891 c -7.79598,-1.3513 -14.44508,-5.12773 -18.23155,-10.35479 -2.35267,-3.24778 -2.66792,-5.20219 -1.09313,-6.77698 1.83608,-1.83608 3.78659,-1.14897 6.64674,2.34147 1.92659,2.35114 4.22306,4.0557 7.54216,5.59815 4.17882,1.94199 5.58593,2.22148 11.31759,2.248 5.57404,0.0258 7.301,-0.27856 11.63637,-2.05072 2.8,-1.14456 6.44342,-2.91836 8.0965,-3.9418 l 3.00559,-1.86078 -3.83441,-3.50443 c -5.17751,-4.73196 -7.2126,-9.12931 -6.60754,-14.27738 0.56162,-4.7785 1.67334,-6.98199 5.27992,-10.46505 6.55407,-6.32962 14.1036,-6.51504 19.75941,-0.4853 3.19762,3.40903 4.01576,6.40611 3.56078,13.04415 -0.27497,4.0117 -0.92062,6.69346 -2.24756,9.33532 -1.66919,3.32328 -1.72902,3.70668 -0.57844,3.70668 1.7687,0 10.25619,-2.89715 12.47484,-4.25821 7.21743,-4.4276 14.73557,-13.47916 15.71457,-18.91972 0.62103,-3.45126 1.49423,-4.45843 3.86539,-4.45843 4.51406,0 4.83086,3.76735 0.97394,11.58211 -4.22382,8.55819 -13.34844,17.00443 -22.09434,20.45174 -5.46454,2.15392 -10.58173,2.93884 -14.8232,2.27372 -3.44587,-0.54037 -3.85972,-0.42092 -7.90021,2.28026 -11.04809,7.38596 -22.12605,10.28381 -32.46342,8.49199 z m 37.37594,-22.71619 c 0.99049,-1.7 2.19083,-4.6543 2.66741,-6.56512 0.73748,-2.95692 0.68105,-3.95983 -0.37902,-6.73558 -0.68503,-1.79374 -1.90603,-3.61485 -2.71332,-4.04689 -2.20708,-1.1812 -5.87133,-0.17747 -8.40879,2.30336 -4.13441,4.04215 -3.98334,9.03171 0.39916,13.18322 2.31491,2.1929 5.91558,4.95192 6.46251,4.95192 0.0941,0 0.98156,-1.39091 1.97205,-3.09091 z"
         id="path3"
         sodipodi:nodetypes="sssssssssssscssssssssssssssssssscsssssssscsssssscssssssssssscscssssssssssssssssssssssscscsssssssssssssssssssssssssssssssscsscssssssssssssssssssssssssssssccsssssssscsssssssssssssssssssssss" />
      <path
         style="fill:#af4051"
         d="m 294.73614,364.37698 c -3.82856,-2.33434 -13.77329,-12.22983 -15.09961,-15.02485 -1.74336,-3.67384 -0.91519,-7.15368 2.52006,-10.58893 2.41005,-2.41005 3.19704,-2.76321 6.15761,-2.76321 1.86693,0 4.31626,0.47671 5.44298,1.05936 1.91363,0.98958 2.15659,0.94437 3.68853,-0.6863 3.56284,-3.79248 9.05306,-5.01114 13.11431,-2.91098 5.89979,3.05089 4.84699,10.34381 -3.3337,23.09306 -6.08851,9.48869 -7.89794,10.62183 -12.49018,7.82185 z"
         id="path6"
         sodipodi:nodetypes="sssssssss" />
      <ellipse
         style="fill:#e6e6e6;stroke-width:0;paint-order:stroke fill markers"
         id="path10"
         cx="311.72626"
         cy="217.633"
         rx="2.3692548"
         ry="2.0307899"
         transform="translate(39.261939,14.89246)" />
      <ellipse
         style="fill:#e6e6e6;stroke-width:0;paint-order:stroke fill markers"
         id="path10-6"
         cx="197.8909"
         cy="247.75903"
         rx="2.3692548"
         ry="2.0307899"
         transform="translate(39.261939,14.89246)" />
    </g>
  </g>
</svg>
