<svg id="Ebene_1" data-name="Ebene 1" xmlns="http://www.w3.org/2000/svg" viewBox="0 0 373.05 378.2"><defs><style>.cls-1{fill:#fff;}.cls-2{fill:#265aa6;}</style></defs><path class="cls-1" d="M236.42,227s-33.76,94-73.87,117.9c0,0,109.76,16,154.55-100.8,0,0,30.36-61.76,9.75-125.52,0,0-8.86-19.71,13.34-44.59,0,0-46.17-10-59.13,8.31,0,0-12.67,15.2,4.18,46.92,0,0-42.21-52.62-180.08-96.57,0,0-1.51,50.51,38.32,82.15L102.66,90.48s3.56,43.06,54.54,62.29c0,0-33.16-9.72-39.41-14.08C117.79,138.69,152.38,203.76,236.42,227Z"/><path class="cls-1" d="M239.48,233.48s-63.24-13.2-103.89-61.42c0,0-71.08,6.16-102.41-13.66,0,0-7.69,30.75,52.18,37.44,0,0-27.15,5.29-42.18-2.21,0,0,9.09,39.69,61.47,43.31,0,0-17.85,8.15-24.29,6.78,0,0,55.08,57.74,129.37,46.72Z"/><circle class="cls-2" cx="299.26" cy="93.06" r="5.24"/></svg>